<svg width="22" height="22" viewBox="0 0 22 22" fill="none" xmlns="http://www.w3.org/2000/svg">
<circle cx="11" cy="11" r="11" fill="white"/>
<path d="M0 11C0 4.92422 4.92422 0 11 0C17.0758 0 22 4.92422 22 11C22 17.0758 17.0758 22 11 22C4.92422 22 0 17.0758 0 11ZM7.51953 8.9418L9.54336 10.9613L7.51953 13.0195C7.11992 13.4234 7.11992 14.0766 7.51953 14.4418C7.92344 14.8801 8.57656 14.8801 8.9418 14.4418L10.9613 12.4566L13.0195 14.4418C13.4234 14.8801 14.0766 14.8801 14.4418 14.4418C14.8801 14.0766 14.8801 13.4234 14.4418 13.0195L12.4566 10.9613L14.4418 8.9418C14.8801 8.57656 14.8801 7.92344 14.4418 7.51953C14.0766 7.11992 13.4234 7.11992 13.0195 7.51953L10.9613 9.54336L8.9418 7.51953C8.57656 7.11992 7.92344 7.11992 7.51953 7.51953C7.11992 7.92344 7.11992 8.57656 7.51953 8.9418Z" fill="black"/>
</svg>
