<svg width="33" height="29" viewBox="0 0 33 29" fill="none" xmlns="http://www.w3.org/2000/svg">
<path d="M0 2.41667C0 1.08221 1.05556 0 2.35714 0H30.6429C31.9467 0 33 1.08221 33 2.41667C33 3.75339 31.9467 4.83333 30.6429 4.83333H2.35714C1.05556 4.83333 0 3.75339 0 2.41667ZM0 14.5C0 13.1633 1.05556 12.0833 2.35714 12.0833H30.6429C31.9467 12.0833 33 13.1633 33 14.5C33 15.8367 31.9467 16.9167 30.6429 16.9167H2.35714C1.05556 16.9167 0 15.8367 0 14.5ZM30.6429 29H2.35714C1.05556 29 0 27.9201 0 26.5833C0 25.2466 1.05556 24.1667 2.35714 24.1667H30.6429C31.9467 24.1667 33 25.2466 33 26.5833C33 27.9201 31.9467 29 30.6429 29Z" fill="#204F5E"/>
</svg>
