<svg width="22" height="23" viewBox="0 0 22 23" fill="none" xmlns="http://www.w3.org/2000/svg">
<path d="M21.4973 19.2645L16.3539 14.0674C17.5235 12.3129 18.1006 10.1207 17.7917 7.78483C17.2649 3.81165 14.0422 0.578313 10.1062 0.0747942C4.2543 -0.673428 -0.666497 4.2988 0.0740287 10.2119C0.572468 14.1907 3.77279 17.4497 7.70531 17.9794C10.017 18.2915 12.187 17.7086 13.9229 16.5266L19.0663 21.7237C19.7375 22.4019 20.8259 22.4019 21.497 21.7237C22.1676 21.0447 22.1676 19.9419 21.4973 19.2645ZM3.39879 9.03092C3.39879 5.96648 5.86607 3.47342 8.89881 3.47342C11.9316 3.47342 14.3988 5.96648 14.3988 9.03092C14.3988 12.0954 11.9316 14.5884 8.89881 14.5884C5.86607 14.5884 3.39879 12.0962 3.39879 9.03092Z" fill="#204F5E"/>
</svg>
